<?xml version="1.0" encoding="UTF-8" standalone="no"?>
<!-- Created with Inkscape (http://www.inkscape.org/) -->

<svg
   xmlns:dc="http://purl.org/dc/elements/1.1/"
   xmlns:cc="http://creativecommons.org/ns#"
   xmlns:rdf="http://www.w3.org/1999/02/22-rdf-syntax-ns#"
   xmlns:svg="http://www.w3.org/2000/svg"
   xmlns="http://www.w3.org/2000/svg"
   xmlns:sodipodi="http://sodipodi.sourceforge.net/DTD/sodipodi-0.dtd"
   xmlns:inkscape="http://www.inkscape.org/namespaces/inkscape"
   width="400"
   height="300"
   viewBox="0 0 400 300"
   id="svg2"
   version="1.1"
   inkscape:version="0.48.4 r9939"
   sodipodi:docname="icons.svg"
   inkscape:export-filename="C:\Users\andrei\Desktop\Constraint\css\icons.png"
   inkscape:export-xdpi="90"
   inkscape:export-ydpi="90">
  <defs
     id="defs4" />
  <sodipodi:namedview
     id="base"
     pagecolor="#ffffff"
     bordercolor="#666666"
     borderopacity="1.0"
     inkscape:pageopacity="0.0"
     inkscape:pageshadow="2"
     inkscape:zoom="11.2"
     inkscape:cx="32.905029"
     inkscape:cy="149.84567"
     inkscape:document-units="px"
     inkscape:current-layer="layer1"
     showgrid="false"
     showguides="true"
     inkscape:guide-bbox="true"
     inkscape:snap-to-guides="true"
     inkscape:snap-grids="true"
     inkscape:snap-object-midpoints="true"
     inkscape:window-width="1366"
     inkscape:window-height="706"
     inkscape:window-x="-8"
     inkscape:window-y="-8"
     inkscape:window-maximized="1">
    <sodipodi:guide
       orientation="0,1"
       position="-163.51844,908.12714"
       id="guide4169" />
    <sodipodi:guide
       orientation="1,0"
       position="-251.42857,1076.25"
       id="guide4171" />
    <sodipodi:guide
       orientation="0,1"
       position="-199.25259,937.04276"
       id="guide4173" />
    <sodipodi:guide
       orientation="0,1"
       position="-243.44676,1089.0707"
       id="guide4207" />
    <sodipodi:guide
       orientation="0,1"
       position="107.07617,129.8046"
       id="guide4621" />
    <sodipodi:guide
       orientation="1,0"
       position="19.351578,129.8046"
       id="guide4623" />
    <sodipodi:guide
       orientation="1,0"
       position="55.55839,160.61425"
       id="guide4625" />
    <sodipodi:guide
       orientation="1,0"
       position="94.954339,157.07872"
       id="guide4627" />
    <sodipodi:guide
       orientation="1,0"
       position="130.81475,159.09903"
       id="guide4629" />
    <sodipodi:guide
       orientation="0,1"
       position="142.93659,103.54064"
       id="guide4631" />
    <sodipodi:guide
       orientation="0,1"
       position="152.02796,78.286822"
       id="guide4641" />
    <sodipodi:guide
       orientation="0,1"
       position="149.50258,50.507627"
       id="guide4651" />
  </sodipodi:namedview>
  <metadata
     id="metadata7">
    <rdf:RDF>
      <cc:Work
         rdf:about="">
        <dc:format>image/svg+xml</dc:format>
        <dc:type
           rdf:resource="http://purl.org/dc/dcmitype/StillImage" />
        <dc:title></dc:title>
      </cc:Work>
    </rdf:RDF>
  </metadata>
  <g
     inkscape:label="Layer 1"
     inkscape:groupmode="layer"
     id="layer1"
     transform="translate(0,-752.3622)">
    <rect
       style="fill:#ffffff;fill-opacity:1;stroke:none"
       id="rect3050"
       width="10.322496"
       height="10.069958"
       x="52.838749"
       y="839.32721" />
    <rect
       y="839.32721"
       x="32.838753"
       height="10.069958"
       width="10.322496"
       id="rect3048"
       style="fill:#ffffff;fill-opacity:1;stroke:none" />
    <rect
       style="fill:#ffffff;fill-opacity:1;stroke:none"
       id="rect3046"
       width="10.322496"
       height="10.069958"
       x="12.690042"
       y="839.34631" />
    <path
       sodipodi:nodetypes="cccccccccccccc"
       inkscape:connector-curvature="0"
       id="path4217"
       d="m 38.75896,761.11967 -1.862839,1.86284 3.081249,3.08124 -3.081249,3.08126 1.862839,1.8628 3.08124,-3.08121 3.082515,3.08111 1.862844,-1.86285 -3.081249,-3.08126 3.081239,-3.08124 -1.862834,-1.86283 -3.082505,3.08107 -3.081239,-3.08122 z"
       style="fill:#e6e6e6;fill-opacity:1;stroke:none" />
    <path
       sodipodi:nodetypes="ccccc"
       inkscape:connector-curvature="0"
       id="path4221"
       d="m 36.011448,781.88148 11.658785,0 0,2.65429 -11.658785,0 z"
       style="fill:#e6e6e6;fill-opacity:1;stroke:none" />
    <path
       inkscape:connector-curvature="0"
       id="path4225"
       d="m 34.541601,794.8871 0,9.92197 14.598478,0 0,-9.92197 -14.598478,0 z m 1.579693,2.654 11.452781,0 0,5.62474 -11.452781,0 0,-5.62474 z"
       style="fill:#e6e6e6;fill-opacity:1;stroke:none" />
    <path
       inkscape:connector-curvature="0"
       id="path4229"
       d="m 36.607132,812.79441 0,3.72831 -2.129069,0 0,6.18585 9.10083,0 0,-1.99418 5.624724,0 0,-7.91998 -12.596485,0 z m 1.579688,2.654 9.450793,0 0,3.62275 -4.05872,0 0,-2.54844 -5.392073,0 0,-1.07431 z m -2.723404,2.72926 1.143716,0 0,2.53672 5.995207,0 0,0.96971 -7.138923,0 0,-3.50643 z m 2.723404,0 4.415519,0 0,0.89349 -4.415519,0 0,-0.89349 z"
       style="fill:#e6e6e6;fill-opacity:1;stroke:none" />
    <path
       style="fill:#000000;fill-opacity:1;stroke:none"
       d="m 14.637564,761.11969 -1.86284,1.8628 3.081249,3.08126 -3.081249,3.08125 1.86284,1.8628 3.081239,-3.08121 3.082515,3.08111 1.862844,-1.86285 -3.081249,-3.08125 3.081239,-3.08126 -1.862834,-1.8628 -3.082505,3.08106 -3.081239,-3.08121 z"
       id="path4257"
       inkscape:connector-curvature="0"
       sodipodi:nodetypes="cccccccccccccc" />
    <path
       style="fill:#000000;fill-opacity:1;stroke:none"
       d="m 11.890051,781.88148 11.658785,0 0,2.65429 -11.658785,0 z"
       id="path4259"
       inkscape:connector-curvature="0"
       sodipodi:nodetypes="ccccc" />
    <path
       style="fill:#000000;fill-opacity:1;stroke:none"
       d="m 10.420204,794.88711 0,9.92195 14.598478,0 0,-9.92195 -14.598478,0 z m 1.579693,2.65398 11.452781,0 0,5.62474 -11.452781,0 0,-5.62474 z"
       id="path4261"
       inkscape:connector-curvature="0" />
    <path
       style="fill:#000000;fill-opacity:1;stroke:none"
       d="m 12.485736,812.79442 0,3.7283 -2.129069,0 0,6.18585 9.10083,0 0,-1.99418 5.624722,0 0,-7.91997 -12.596483,0 z m 1.579688,2.65398 9.45079,0 0,3.62276 -4.058717,0 0,-2.54844 -5.392073,0 0,-1.07432 z m -2.723404,2.72927 1.143716,0 0,2.53672 5.995207,0 0,0.96971 -7.138923,0 0,-3.50643 z m 2.723404,0 4.415519,0 0,0.89349 -4.415519,0 0,-0.89349 z"
       id="path4263"
       inkscape:connector-curvature="0" />
    <g
       id="g4617"
       transform="matrix(0.50049689,0,0,0.50049689,-32.615053,264.19908)">
      <path
         style="fill:#000000;fill-opacity:1;stroke:none"
         d="m 241.83884,992.85414 -3.72198,3.72198 6.15638,6.15708 -6.15638,6.1564 3.72198,3.7219 6.15636,-6.1563 6.15891,6.1561 3.72199,-3.722 -6.15638,-6.1564 6.15636,-6.15708 -3.72197,-3.72196 -6.15889,6.15626 -6.15636,-6.15655 z"
         id="path4589"
         inkscape:connector-curvature="0"
         sodipodi:nodetypes="cccccccccccccc" />
      <path
         sodipodi:nodetypes="cccccccccccccc"
         inkscape:connector-curvature="0"
         id="path4277"
         d="m 240.76558,992.79091 -3.72198,3.72198 6.15638,6.15641 -6.15638,6.1564 3.72198,3.7219 6.15636,-6.1563 6.15891,6.1561 3.72199,-3.722 -6.15638,-6.1564 6.15636,-6.15641 -3.72197,-3.72196 -6.15889,6.15603 -6.15636,-6.15632 z"
         style="fill:#e6e6e6;fill-opacity:1;stroke:none" />
    </g>
    <g
       id="g4637"
       transform="matrix(0.50049689,0,0,0.50049689,15.117391,277.61089)">
      <path
         style="fill:#000000;fill-opacity:1;stroke:none"
         d="m 140.97916,1007.5399 23.29442,0 0,5.3033 -23.29442,0 z"
         id="path4591"
         inkscape:connector-curvature="0"
         sodipodi:nodetypes="ccccc" />
      <path
         sodipodi:nodetypes="ccccc"
         inkscape:connector-curvature="0"
         id="path4279"
         d="m 140.22154,1006.7821 23.29442,0 0,5.3033 -23.29442,0 z"
         style="fill:#e6e6e6;fill-opacity:1;stroke:none" />
    </g>
    <g
       id="g4647"
       transform="matrix(0.50049689,0,0,0.50049689,0.132091,297.61513)">
      <path
         style="fill:#000000;fill-opacity:1;stroke:none"
         d="m 167.98323,993.55645 0,19.82445 29.16797,0 0,-19.82445 -29.16797,0 z m 3.15625,5.30273 22.88282,0 0,11.23852 -22.88282,0 0,-11.23852 z"
         id="path4593"
         inkscape:connector-curvature="0" />
      <path
         inkscape:connector-curvature="0"
         id="path4281"
         d="m 167.22561,992.79883 0,19.82427 29.16797,0 0,-19.82427 -29.16797,0 z m 3.15625,5.30273 22.88282,0 0,11.23834 -22.88282,0 0,-11.23834 z"
         style="fill:#e6e6e6;fill-opacity:1;stroke:none" />
    </g>
    <g
       id="g4653"
       transform="matrix(0.50049689,0,0,0.50049689,-15.477637,315.51853)">
      <path
         style="fill:#000000;fill-opacity:1;stroke:none"
         d="m 203.29865,993.56427 0,7.44943 -4.25391,0 0,12.3594 18.18359,0 0,-3.9844 11.23828,0 0,-15.82443 -25.16796,0 z m 3.15624,5.30273 18.88282,0 0,7.2385 -8.10938,0 0,-5.0918 -10.77344,0 0,-2.1467 z m -5.4414,5.4533 2.28516,0 0,5.0684 11.97851,0 0,1.9375 -14.26367,0 0,-7.0059 z m 5.4414,0 8.82227,0 0,1.7852 -8.82227,0 0,-1.7852 z"
         id="path4595"
         inkscape:connector-curvature="0" />
      <path
         inkscape:connector-curvature="0"
         id="path4283"
         d="m 202.54103,992.80665 0,7.44925 -4.25391,0 0,12.3594 18.18359,0 0,-3.9844 11.23828,0 0,-15.82425 -25.16796,0 z m 3.15624,5.30273 18.88282,0 0,7.23832 -8.10938,0 0,-5.0918 -10.77344,0 0,-2.14652 z m -5.4414,5.45312 2.28516,0 0,5.0684 11.97851,0 0,1.9375 -14.26367,0 0,-7.0059 z m 5.4414,0 8.82227,0 0,1.7852 -8.82227,0 0,-1.7852 z"
         style="fill:#e6e6e6;fill-opacity:1;stroke:none" />
    </g>
    <g
       id="g4613"
       transform="matrix(0.50049689,0,0,0.50049689,-56.563077,250.17112)">
      <path
         sodipodi:nodetypes="cccccccccccccc"
         inkscape:connector-curvature="0"
         id="path4597"
         d="m 241.83884,1020.8828 -3.72198,3.7214 6.15638,6.1565 -6.15638,6.1564 3.72198,3.7219 6.15636,-6.1563 6.15891,6.1561 3.72199,-3.722 -6.15638,-6.1564 6.15636,-6.1565 -3.72197,-3.7214 -6.15889,6.1553 -6.15636,-6.1556 z"
         style="fill:#e6e6e6;fill-opacity:1;stroke:none" />
      <path
         style="fill:#000000;fill-opacity:1;stroke:none"
         d="m 240.76558,1020.8196 -3.72198,3.7213 6.15638,6.1559 -6.15638,6.1564 3.72198,3.7219 6.15636,-6.1563 6.15891,6.1561 3.72199,-3.722 -6.15638,-6.1564 6.15636,-6.1559 -3.72197,-3.7213 -6.15889,6.1551 -6.15636,-6.1554 z"
         id="path4605"
         inkscape:connector-curvature="0"
         sodipodi:nodetypes="cccccccccccccc" />
    </g>
    <g
       id="g4633"
       transform="matrix(0.50049689,0,0,0.50049689,-8.830634,263.58322)">
      <path
         sodipodi:nodetypes="ccccc"
         inkscape:connector-curvature="0"
         id="path4599"
         d="m 140.97916,1035.5674 23.29442,0 0,5.3033 -23.29442,0 z"
         style="fill:#e6e6e6;fill-opacity:1;stroke:none" />
      <path
         style="fill:#000000;fill-opacity:1;stroke:none"
         d="m 140.22154,1034.8096 23.29442,0 0,5.3033 -23.29442,0 z"
         id="path4607"
         inkscape:connector-curvature="0"
         sodipodi:nodetypes="ccccc" />
    </g>
    <g
       id="g4643"
       transform="matrix(0.50049689,0,0,0.50049689,-23.436747,283.96639)">
      <path
         inkscape:connector-curvature="0"
         id="path4601"
         d="m 167.98323,1021.585 0,19.8234 29.16797,0 0,-19.8234 -29.16797,0 z m 3.15625,5.3019 22.88282,0 0,11.2383 -22.88282,0 0,-11.2383 z"
         style="fill:#e6e6e6;fill-opacity:1;stroke:none" />
      <path
         style="fill:#000000;fill-opacity:1;stroke:none"
         d="m 167.22561,1020.8275 0,19.8231 29.16797,0 0,-19.8231 -29.16797,0 z m 3.15625,5.3019 22.88282,0 0,11.238 -22.88282,0 0,-11.238 z"
         id="path4609"
         inkscape:connector-curvature="0" />
    </g>
    <g
       id="g4657"
       transform="matrix(0.50049689,0,0,0.50049689,-39.046477,301.8698)">
      <path
         inkscape:connector-curvature="0"
         id="path4603"
         d="m 203.29865,1021.5928 0,7.4484 -4.25391,0 0,12.3594 18.18359,0 0,-3.9844 11.23828,0 0,-15.8234 -25.16796,0 z m 3.15624,5.3019 18.88282,0 0,7.2383 -8.10938,0 0,-5.0918 -10.77344,0 0,-2.1465 z m -5.4414,5.4531 2.28516,0 0,5.0684 11.97851,0 0,1.9375 -14.26367,0 0,-7.0059 z m 5.4414,0 8.82227,0 0,1.7852 -8.82227,0 0,-1.7852 z"
         style="fill:#e6e6e6;fill-opacity:1;stroke:none" />
      <path
         style="fill:#000000;fill-opacity:1;stroke:none"
         d="m 202.54103,1020.8353 0,7.4481 -4.25391,0 0,12.3594 18.18359,0 0,-3.9844 11.23828,0 0,-15.8231 -25.16796,0 z m 3.15624,5.3019 18.88282,0 0,7.238 -8.10938,0 0,-5.0918 -10.77344,0 0,-2.1462 z m -5.4414,5.4528 2.28516,0 0,5.0684 11.97851,0 0,1.9375 -14.26367,0 0,-7.0059 z m 5.4414,0 8.82227,0 0,1.7852 -8.82227,0 0,-1.7852 z"
         id="path4611"
         inkscape:connector-curvature="0" />
    </g>
    <path
       style="fill:#000000;fill-opacity:1;stroke:none"
       d="m 10,836.3622 0,16 16,0 0,-16 -16,0 z m 3,3 10,0 0,10 -10,0 0,-10 z"
       id="rect3026"
       inkscape:connector-curvature="0" />
    <path
       inkscape:connector-curvature="0"
       id="path3032"
       d="m 30,836.3622 0,16 16,0 0,-16 -16,0 z m 3,3 10,0 0,10 -10,0 0,-10 z"
       style="fill:#000000;fill-opacity:1;stroke:none" />
    <path
       style="fill:#000000;fill-opacity:1;stroke:none"
       d="m 50,836.3622 0,16 16,0 0,-16 -16,0 z m 3,3 10,0 0,10 -10,0 0,-10 z"
       id="path3034"
       inkscape:connector-curvature="0" />
    <path
       style="fill:#000000;stroke:none"
       d="m 33.934733,845.29674 1.751519,-1.67307 1.626179,1.89404 2.583487,-4.47473 2.169349,1.32729 -3.829449,5.97406 -1.291362,0.0316 z"
       id="path3042"
       inkscape:connector-curvature="0"
       sodipodi:nodetypes="cccccccc" />
    <rect
       style="fill:#000000;fill-opacity:1;stroke:none"
       id="rect3044"
       width="6.5659914"
       height="6.5659914"
       x="54.717003"
       y="841.07916" />
    <rect
       y="859.32721"
       x="52.838749"
       height="10.069958"
       width="10.322496"
       id="rect3052"
       style="fill:#ffffff;fill-opacity:1;stroke:none" />
    <rect
       style="fill:#ffffff;fill-opacity:1;stroke:none"
       id="rect3054"
       width="10.322496"
       height="10.069958"
       x="32.838753"
       y="859.32721" />
    <rect
       y="859.34631"
       x="12.690042"
       height="10.069958"
       width="10.322496"
       id="rect3056"
       style="fill:#ffffff;fill-opacity:1;stroke:none" />
    <path
       inkscape:connector-curvature="0"
       id="path3058"
       d="m 10,856.3622 0,16 16,0 0,-16 -16,0 z m 3,3 10,0 0,10 -10,0 0,-10 z"
       style="fill:#808080;fill-opacity:1;stroke:none" />
    <path
       style="fill:#808080;fill-opacity:1;stroke:none"
       d="m 30,856.3622 0,16 16,0 0,-16 -16,0 z m 3,3 10,0 0,10 -10,0 0,-10 z"
       id="path3060"
       inkscape:connector-curvature="0" />
    <path
       inkscape:connector-curvature="0"
       id="path3062"
       d="m 50,856.3622 0,16 16,0 0,-16 -16,0 z m 3,3 10,0 0,10 -10,0 0,-10 z"
       style="fill:#808080;fill-opacity:1;stroke:none" />
    <path
       sodipodi:nodetypes="cccccccc"
       inkscape:connector-curvature="0"
       id="path3064"
       d="m 33.934733,865.29674 1.751519,-1.67307 1.626179,1.89404 2.583487,-4.47473 2.169349,1.32729 -3.829449,5.97406 -1.291362,0.0316 z"
       style="fill:#808080;stroke:none;fill-opacity:1" />
    <rect
       y="861.07916"
       x="54.717003"
       height="6.5659914"
       width="6.5659914"
       id="rect3066"
       style="fill:#808080;fill-opacity:1;stroke:none" />
    <path
       style="fill:#000000;fill-opacity:1;stroke:none"
       d="m 18,878.3622 c -4.411438,0 -8,3.59551 -8,8.01547 0,4.41997 3.588562,7.98453 8,7.98453 4.411438,0 8,-3.56456 8,-7.98453 0,-4.41996 -3.588562,-8.01547 -8,-8.01547 z m 0.06178,3.34236 c 2.619291,0 4.756757,2.1416 4.756757,4.76596 0,2.62436 -2.137466,4.73501 -4.756757,4.73501 -2.619291,0 -4.725869,-2.11065 -4.725869,-4.73501 0,-2.62436 2.106578,-4.76596 4.725869,-4.76596 z"
       id="path3050"
       inkscape:connector-curvature="0" />
    <path
       inkscape:connector-curvature="0"
       id="path3055"
       d="m 38,878.3622 c -4.411438,0 -8,3.59551 -8,8.01547 0,4.41997 3.588562,7.98453 8,7.98453 4.411438,0 8,-3.56456 8,-7.98453 0,-4.41996 -3.588562,-8.01547 -8,-8.01547 z m 0.06178,3.34236 c 2.619291,0 4.756757,2.1416 4.756757,4.76596 0,2.62436 -2.137466,4.73501 -4.756757,4.73501 -2.619291,0 -4.725869,-2.11065 -4.725869,-4.73501 0,-2.62436 2.106578,-4.76596 4.725869,-4.76596 z"
       style="fill:#000000;fill-opacity:1;stroke:none" />
    <path
       inkscape:connector-curvature="0"
       id="path3057"
       d="m 18,898.3622 c -4.411438,0 -8,3.59551 -8,8.01547 0,4.41997 3.588562,7.98453 8,7.98453 4.411438,0 8,-3.56456 8,-7.98453 0,-4.41996 -3.588562,-8.01547 -8,-8.01547 z m 0.06178,3.34236 c 2.619291,0 4.756757,2.1416 4.756757,4.76596 0,2.62436 -2.137466,4.73501 -4.756757,4.73501 -2.619291,0 -4.725869,-2.11065 -4.725869,-4.73501 0,-2.62436 2.106578,-4.76596 4.725869,-4.76596 z"
       style="fill:#808080;fill-opacity:1;stroke:none" />
    <path
       style="fill:#808080;fill-opacity:1;stroke:none"
       d="m 38,898.3622 c -4.411438,0 -8,3.59551 -8,8.01547 0,4.41997 3.588562,7.98453 8,7.98453 4.411438,0 8,-3.56456 8,-7.98453 0,-4.41996 -3.588562,-8.01547 -8,-8.01547 z m 0.06178,3.34236 c 2.619291,0 4.756757,2.1416 4.756757,4.76596 0,2.62436 -2.137466,4.73501 -4.756757,4.73501 -2.619291,0 -4.725869,-2.11065 -4.725869,-4.73501 0,-2.62436 2.106578,-4.76596 4.725869,-4.76596 z"
       id="path3059"
       inkscape:connector-curvature="0" />
    <path
       sodipodi:type="arc"
       style="fill:#000000;fill-opacity:1;stroke:none"
       id="path3061"
       sodipodi:cx="38.214287"
       sodipodi:cy="134.82143"
       sodipodi:rx="2.5892856"
       sodipodi:ry="2.5892856"
       d="m 40.803572,134.82143 a 2.5892856,2.5892856 0 1 1 -5.178571,0 2.5892856,2.5892856 0 1 1 5.178571,0 z"
       transform="matrix(1.1586207,0,0,1.1586207,-6.2758637,730.1553)" />
    <path
       transform="matrix(1.1586207,0,0,1.1586207,-6.2758637,750.1553)"
       d="m 40.803572,134.82143 a 2.5892856,2.5892856 0 1 1 -5.178571,0 2.5892856,2.5892856 0 1 1 5.178571,0 z"
       sodipodi:ry="2.5892856"
       sodipodi:rx="2.5892856"
       sodipodi:cy="134.82143"
       sodipodi:cx="38.214287"
       id="path3063"
       style="fill:#808080;fill-opacity:1;stroke:none"
       sodipodi:type="arc" />
  </g>
</svg>
