<?xml version="1.0" encoding="UTF-8" standalone="no"?>
<!-- Created with Inkscape (http://www.inkscape.org/) -->

<svg
   xmlns:dc="http://purl.org/dc/elements/1.1/"
   xmlns:cc="http://creativecommons.org/ns#"
   xmlns:rdf="http://www.w3.org/1999/02/22-rdf-syntax-ns#"
   xmlns:svg="http://www.w3.org/2000/svg"
   xmlns="http://www.w3.org/2000/svg"
   xmlns:sodipodi="http://sodipodi.sourceforge.net/DTD/sodipodi-0.dtd"
   xmlns:inkscape="http://www.inkscape.org/namespaces/inkscape"
   width="210mm"
   height="297mm"
   viewBox="0 0 744.09448819 1052.3622047"
   id="svg2"
   version="1.1"
   inkscape:version="0.91pre3 r13670"
   sodipodi:docname="icons.svg">
  <defs
     id="defs4" />
  <sodipodi:namedview
     id="base"
     pagecolor="#ffffff"
     bordercolor="#666666"
     borderopacity="1.0"
     inkscape:pageopacity="0.0"
     inkscape:pageshadow="2"
     inkscape:zoom="1.4"
     inkscape:cx="189.18218"
     inkscape:cy="74.267353"
     inkscape:document-units="px"
     inkscape:current-layer="layer1"
     showgrid="false"
     showguides="true"
     inkscape:guide-bbox="true"
     inkscape:snap-to-guides="true"
     inkscape:snap-grids="true"
     inkscape:snap-object-midpoints="true"
     inkscape:window-width="1920"
     inkscape:window-height="1018"
     inkscape:window-x="-8"
     inkscape:window-y="-8"
     inkscape:window-maximized="1">
    <sodipodi:guide
       orientation="0,1"
       position="-163.51844,908.12714"
       id="guide4169" />
    <sodipodi:guide
       orientation="1,0"
       position="-251.42857,1076.25"
       id="guide4171" />
    <sodipodi:guide
       orientation="0,1"
       position="-199.25259,937.04276"
       id="guide4173" />
    <sodipodi:guide
       orientation="0,1"
       position="-243.44676,1089.0707"
       id="guide4207" />
    <sodipodi:guide
       orientation="0,1"
       position="107.07617,129.8046"
       id="guide4621" />
    <sodipodi:guide
       orientation="1,0"
       position="19.351578,129.8046"
       id="guide4623" />
    <sodipodi:guide
       orientation="1,0"
       position="55.55839,160.61425"
       id="guide4625" />
    <sodipodi:guide
       orientation="1,0"
       position="94.954339,157.07872"
       id="guide4627" />
    <sodipodi:guide
       orientation="1,0"
       position="130.81475,159.09903"
       id="guide4629" />
    <sodipodi:guide
       orientation="0,1"
       position="142.93659,103.54064"
       id="guide4631" />
    <sodipodi:guide
       orientation="0,1"
       position="152.02796,78.286822"
       id="guide4641" />
    <sodipodi:guide
       orientation="0,1"
       position="149.50258,50.507627"
       id="guide4651" />
  </sodipodi:namedview>
  <metadata
     id="metadata7">
    <rdf:RDF>
      <cc:Work
         rdf:about="">
        <dc:format>image/svg+xml</dc:format>
        <dc:type
           rdf:resource="http://purl.org/dc/dcmitype/StillImage" />
        <dc:title></dc:title>
      </cc:Work>
    </rdf:RDF>
  </metadata>
  <g
     inkscape:label="Layer 1"
     inkscape:groupmode="layer"
     id="layer1">
    <path
       sodipodi:nodetypes="cccccccccccccc"
       inkscape:connector-curvature="0"
       id="path4217"
       d="m 49.40075,912.67956 -3.72198,3.72198 6.15638,6.15637 -6.15638,6.1564 3.72198,3.7219 6.15636,-6.1563 6.15891,6.1561 3.72199,-3.722 -6.15638,-6.1564 6.15636,-6.15637 -3.72197,-3.72196 -6.15889,6.15603 -6.15636,-6.15632 z"
       style="opacity:1;fill:#e6e6e6;fill-opacity:1;stroke:none;stroke-width:1;stroke-linecap:round;stroke-linejoin:round;stroke-miterlimit:4;stroke-dasharray:none;stroke-dashoffset:0" />
    <path
       sodipodi:nodetypes="ccccc"
       inkscape:connector-curvature="0"
       id="path4221"
       d="m 43.91118,946.16991 23.29442,0 0,5.3033 -23.29442,0 z"
       style="opacity:1;fill:#e6e6e6;fill-opacity:1;stroke:none;stroke-width:1;stroke-linecap:round;stroke-linejoin:round;stroke-miterlimit:4;stroke-dasharray:none;stroke-dashoffset:0" />
    <path
       inkscape:connector-curvature="0"
       id="path4225"
       d="m 40.974405,964.16327 0,19.82423 29.16797,0 0,-19.82423 -29.16797,0 z m 3.15625,5.30273 22.88282,0 0,11.2383 -22.88282,0 0,-11.2383 z"
       style="opacity:1;fill:#e6e6e6;fill-opacity:1;stroke:none;stroke-width:1;stroke-linecap:round;stroke-linejoin:round;stroke-miterlimit:4;stroke-dasharray:none;stroke-dashoffset:0" />
    <path
       inkscape:connector-curvature="0"
       id="path4229"
       d="m 45.101365,991.95027 0,7.44921 -4.25391,0 0,12.35942 18.18359,0 0,-3.9844 11.23828,0 0,-15.82423 -25.16796,0 z m 3.15624,5.30273 18.88282,0 0,7.2383 -8.10938,0 0,-5.09182 -10.77344,0 0,-2.14648 z m -5.4414,5.4531 2.28516,0 0,5.0684 11.97851,0 0,1.9375 -14.26367,0 0,-7.0059 z m 5.4414,0 8.82227,0 0,1.7852 -8.82227,0 0,-1.7852 z"
       style="opacity:1;fill:#e6e6e6;fill-opacity:1;stroke:none;stroke-width:1;stroke-linecap:round;stroke-linejoin:round;stroke-miterlimit:4;stroke-dasharray:none;stroke-dashoffset:0" />
    <circle
       style="opacity:1;fill:#ffffff;fill-opacity:1;stroke:none;stroke-width:1;stroke-linecap:round;stroke-linejoin:round;stroke-miterlimit:4;stroke-dasharray:none;stroke-dashoffset:0"
       id="path4245"
       cx="33.482143"
       cy="956.73718"
       r="5.5357146" />
    <path
       style="opacity:1;fill:#000000;fill-opacity:1;stroke:none;stroke-width:1;stroke-linecap:round;stroke-linejoin:round;stroke-miterlimit:4;stroke-dasharray:none;stroke-dashoffset:0"
       d="m 13.193938,912.6796 -3.7219803,3.7219 6.1563803,6.1564 -6.1563803,6.1564 3.7219803,3.7219 6.15636,-6.1563 6.15891,6.1561 3.72199,-3.722 -6.15638,-6.1564 6.15636,-6.1564 -3.72197,-3.7219 -6.15889,6.156 -6.15636,-6.1563 z"
       id="path4257"
       inkscape:connector-curvature="0"
       sodipodi:nodetypes="cccccccccccccc" />
    <path
       style="opacity:1;fill:#000000;fill-opacity:1;stroke:none;stroke-width:1;stroke-linecap:round;stroke-linejoin:round;stroke-miterlimit:4;stroke-dasharray:none;stroke-dashoffset:0"
       d="m 7.7043682,946.16991 23.2944198,0 0,5.3033 -23.2944198,0 z"
       id="path4259"
       inkscape:connector-curvature="0"
       sodipodi:nodetypes="ccccc" />
    <path
       style="opacity:1;fill:#000000;fill-opacity:1;stroke:none;stroke-width:1;stroke-linecap:round;stroke-linejoin:round;stroke-miterlimit:4;stroke-dasharray:none;stroke-dashoffset:0"
       d="m 4.767593,964.16328 0,19.8242 29.16797,0 0,-19.8242 -29.16797,0 z m 3.15625,5.3027 22.88282,0 0,11.2383 -22.88282,0 0,-11.2383 z"
       id="path4261"
       inkscape:connector-curvature="0" />
    <path
       style="opacity:1;fill:#000000;fill-opacity:1;stroke:none;stroke-width:1;stroke-linecap:round;stroke-linejoin:round;stroke-miterlimit:4;stroke-dasharray:none;stroke-dashoffset:0"
       d="m 8.8945555,991.95028 0,7.4492 -4.25391,0 0,12.35942 18.1835895,0 0,-3.9844 11.238275,0 0,-15.82422 -25.1679545,0 z m 3.1562395,5.3027 18.882815,0 0,7.23832 -8.109375,0 0,-5.09182 -10.77344,0 0,-2.1465 z m -5.4413995,5.45312 2.28516,0 0,5.0684 11.9785095,0 0,1.9375 -14.2636695,0 0,-7.0059 z m 5.4413995,0 8.82227,0 0,1.7852 -8.82227,0 0,-1.7852 z"
       id="path4263"
       inkscape:connector-curvature="0" />
    <g
       id="g4617"
       transform="translate(-117.18173,-80.17493)">
      <path
         style="opacity:1;fill:#000000;fill-opacity:1;stroke:none;stroke-width:1;stroke-linecap:round;stroke-linejoin:round;stroke-miterlimit:4;stroke-dasharray:none;stroke-dashoffset:0"
         d="m 241.83884,992.85414 -3.72198,3.72198 6.15638,6.15708 -6.15638,6.1564 3.72198,3.7219 6.15636,-6.1563 6.15891,6.1561 3.72199,-3.722 -6.15638,-6.1564 6.15636,-6.15708 -3.72197,-3.72196 -6.15889,6.15626 -6.15636,-6.15655 z"
         id="path4589"
         inkscape:connector-curvature="0"
         sodipodi:nodetypes="cccccccccccccc" />
      <path
         sodipodi:nodetypes="cccccccccccccc"
         inkscape:connector-curvature="0"
         id="path4277"
         d="m 240.76558,992.79091 -3.72198,3.72198 6.15638,6.15641 -6.15638,6.1564 3.72198,3.7219 6.15636,-6.1563 6.15891,6.1561 3.72199,-3.722 -6.15638,-6.1564 6.15636,-6.15641 -3.72197,-3.72196 -6.15889,6.15603 -6.15636,-6.15632 z"
         style="opacity:1;fill:#e6e6e6;fill-opacity:1;stroke:none;stroke-width:1;stroke-linecap:round;stroke-linejoin:round;stroke-miterlimit:4;stroke-dasharray:none;stroke-dashoffset:0" />
    </g>
    <g
       id="g4637"
       transform="translate(-21.81162,-61.369985)">
      <path
         style="opacity:1;fill:#000000;fill-opacity:1;stroke:none;stroke-width:1;stroke-linecap:round;stroke-linejoin:round;stroke-miterlimit:4;stroke-dasharray:none;stroke-dashoffset:0"
         d="m 140.97916,1007.5399 23.29442,0 0,5.3033 -23.29442,0 z"
         id="path4591"
         inkscape:connector-curvature="0"
         sodipodi:nodetypes="ccccc" />
      <path
         sodipodi:nodetypes="ccccc"
         inkscape:connector-curvature="0"
         id="path4279"
         d="m 140.22154,1006.7821 23.29442,0 0,5.3033 -23.29442,0 z"
         style="opacity:1;fill:#e6e6e6;fill-opacity:1;stroke:none;stroke-width:1;stroke-linecap:round;stroke-linejoin:round;stroke-miterlimit:4;stroke-dasharray:none;stroke-dashoffset:0" />
    </g>
    <g
       id="g4647"
       transform="translate(-51.752465,-29.393292)">
      <path
         style="opacity:1;fill:#000000;fill-opacity:1;stroke:none;stroke-width:1;stroke-linecap:round;stroke-linejoin:round;stroke-miterlimit:4;stroke-dasharray:none;stroke-dashoffset:0"
         d="m 167.98323,993.55645 0,19.82445 29.16797,0 0,-19.82445 -29.16797,0 z m 3.15625,5.30273 22.88282,0 0,11.23852 -22.88282,0 0,-11.23852 z"
         id="path4593"
         inkscape:connector-curvature="0" />
      <path
         inkscape:connector-curvature="0"
         id="path4281"
         d="m 167.22561,992.79883 0,19.82427 29.16797,0 0,-19.82427 -29.16797,0 z m 3.15625,5.30273 22.88282,0 0,11.23834 -22.88282,0 0,-11.23834 z"
         style="opacity:1;fill:#e6e6e6;fill-opacity:1;stroke:none;stroke-width:1;stroke-linecap:round;stroke-linejoin:round;stroke-miterlimit:4;stroke-dasharray:none;stroke-dashoffset:0" />
    </g>
    <g
       id="g4653"
       transform="translate(-82.940925,-1.6141073)">
      <path
         style="opacity:1;fill:#000000;fill-opacity:1;stroke:none;stroke-width:1;stroke-linecap:round;stroke-linejoin:round;stroke-miterlimit:4;stroke-dasharray:none;stroke-dashoffset:0"
         d="m 203.29865,993.56427 0,7.44943 -4.25391,0 0,12.3594 18.18359,0 0,-3.9844 11.23828,0 0,-15.82443 -25.16796,0 z m 3.15624,5.30273 18.88282,0 0,7.2385 -8.10938,0 0,-5.0918 -10.77344,0 0,-2.1467 z m -5.4414,5.4533 2.28516,0 0,5.0684 11.97851,0 0,1.9375 -14.26367,0 0,-7.0059 z m 5.4414,0 8.82227,0 0,1.7852 -8.82227,0 0,-1.7852 z"
         id="path4595"
         inkscape:connector-curvature="0" />
      <path
         inkscape:connector-curvature="0"
         id="path4283"
         d="m 202.54103,992.80665 0,7.44925 -4.25391,0 0,12.3594 18.18359,0 0,-3.9844 11.23828,0 0,-15.82425 -25.16796,0 z m 3.15624,5.30273 18.88282,0 0,7.23832 -8.10938,0 0,-5.0918 -10.77344,0 0,-2.14652 z m -5.4414,5.45312 2.28516,0 0,5.0684 11.97851,0 0,1.9375 -14.26367,0 0,-7.0059 z m 5.4414,0 8.82227,0 0,1.7852 -8.82227,0 0,-1.7852 z"
         style="opacity:1;fill:#e6e6e6;fill-opacity:1;stroke:none;stroke-width:1;stroke-linecap:round;stroke-linejoin:round;stroke-miterlimit:4;stroke-dasharray:none;stroke-dashoffset:0" />
    </g>
    <g
       id="g4613"
       transform="translate(-153.04214,-108.203)">
      <path
         sodipodi:nodetypes="cccccccccccccc"
         inkscape:connector-curvature="0"
         id="path4597"
         d="m 241.83884,1020.8828 -3.72198,3.7214 6.15638,6.1565 -6.15638,6.1564 3.72198,3.7219 6.15636,-6.1563 6.15891,6.1561 3.72199,-3.722 -6.15638,-6.1564 6.15636,-6.1565 -3.72197,-3.7214 -6.15889,6.1553 -6.15636,-6.1556 z"
         style="opacity:1;fill:#e6e6e6;fill-opacity:1;stroke:none;stroke-width:1;stroke-linecap:round;stroke-linejoin:round;stroke-miterlimit:4;stroke-dasharray:none;stroke-dashoffset:0" />
      <path
         style="opacity:1;fill:#000000;fill-opacity:1;stroke:none;stroke-width:1;stroke-linecap:round;stroke-linejoin:round;stroke-miterlimit:4;stroke-dasharray:none;stroke-dashoffset:0"
         d="m 240.76558,1020.8196 -3.72198,3.7213 6.15638,6.1559 -6.15638,6.1564 3.72198,3.7219 6.15636,-6.1563 6.15891,6.1561 3.72199,-3.722 -6.15638,-6.1564 6.15636,-6.1559 -3.72197,-3.7213 -6.15889,6.1551 -6.15636,-6.1554 z"
         id="path4605"
         inkscape:connector-curvature="0"
         sodipodi:nodetypes="cccccccccccccc" />
    </g>
    <g
       id="g4633"
       transform="translate(-57.672031,-89.397485)">
      <path
         sodipodi:nodetypes="ccccc"
         inkscape:connector-curvature="0"
         id="path4599"
         d="m 140.97916,1035.5674 23.29442,0 0,5.3033 -23.29442,0 z"
         style="opacity:1;fill:#e6e6e6;fill-opacity:1;stroke:none;stroke-width:1;stroke-linecap:round;stroke-linejoin:round;stroke-miterlimit:4;stroke-dasharray:none;stroke-dashoffset:0" />
      <path
         style="opacity:1;fill:#000000;fill-opacity:1;stroke:none;stroke-width:1;stroke-linecap:round;stroke-linejoin:round;stroke-miterlimit:4;stroke-dasharray:none;stroke-dashoffset:0"
         d="m 140.22154,1034.8096 23.29442,0 0,5.3033 -23.29442,0 z"
         id="path4607"
         inkscape:connector-curvature="0"
         sodipodi:nodetypes="ccccc" />
    </g>
    <g
       id="g4643"
       transform="translate(-86.855256,-56.663667)">
      <path
         inkscape:connector-curvature="0"
         id="path4601"
         d="m 167.98323,1021.585 0,19.8234 29.16797,0 0,-19.8234 -29.16797,0 z m 3.15625,5.3019 22.88282,0 0,11.2383 -22.88282,0 0,-11.2383 z"
         style="opacity:1;fill:#e6e6e6;fill-opacity:1;stroke:none;stroke-width:1;stroke-linecap:round;stroke-linejoin:round;stroke-miterlimit:4;stroke-dasharray:none;stroke-dashoffset:0" />
      <path
         style="opacity:1;fill:#000000;fill-opacity:1;stroke:none;stroke-width:1;stroke-linecap:round;stroke-linejoin:round;stroke-miterlimit:4;stroke-dasharray:none;stroke-dashoffset:0"
         d="m 167.22561,1020.8275 0,19.8231 29.16797,0 0,-19.8231 -29.16797,0 z m 3.15625,5.3019 22.88282,0 0,11.238 -22.88282,0 0,-11.238 z"
         id="path4609"
         inkscape:connector-curvature="0" />
    </g>
    <g
       id="g4657"
       transform="translate(-118.04372,-28.884472)">
      <path
         inkscape:connector-curvature="0"
         id="path4603"
         d="m 203.29865,1021.5928 0,7.4484 -4.25391,0 0,12.3594 18.18359,0 0,-3.9844 11.23828,0 0,-15.8234 -25.16796,0 z m 3.15624,5.3019 18.88282,0 0,7.2383 -8.10938,0 0,-5.0918 -10.77344,0 0,-2.1465 z m -5.4414,5.4531 2.28516,0 0,5.0684 11.97851,0 0,1.9375 -14.26367,0 0,-7.0059 z m 5.4414,0 8.82227,0 0,1.7852 -8.82227,0 0,-1.7852 z"
         style="opacity:1;fill:#e6e6e6;fill-opacity:1;stroke:none;stroke-width:1;stroke-linecap:round;stroke-linejoin:round;stroke-miterlimit:4;stroke-dasharray:none;stroke-dashoffset:0" />
      <path
         style="opacity:1;fill:#000000;fill-opacity:1;stroke:none;stroke-width:1;stroke-linecap:round;stroke-linejoin:round;stroke-miterlimit:4;stroke-dasharray:none;stroke-dashoffset:0"
         d="m 202.54103,1020.8353 0,7.4481 -4.25391,0 0,12.3594 18.18359,0 0,-3.9844 11.23828,0 0,-15.8231 -25.16796,0 z m 3.15624,5.3019 18.88282,0 0,7.238 -8.10938,0 0,-5.0918 -10.77344,0 0,-2.1462 z m -5.4414,5.4528 2.28516,0 0,5.0684 11.97851,0 0,1.9375 -14.26367,0 0,-7.0059 z m 5.4414,0 8.82227,0 0,1.7852 -8.82227,0 0,-1.7852 z"
         id="path4611"
         inkscape:connector-curvature="0" />
    </g>
  </g>
</svg>
